<?xml version="1.0" encoding="utf-8"?>
<!-- Generator: Adobe Illustrator 25.0.0, SVG Export Plug-In . SVG Version: 6.00 Build 0)  -->
<svg version="1.1" id="Layer_1" xmlns="http://www.w3.org/2000/svg" xmlns:xlink="http://www.w3.org/1999/xlink" x="0px" y="0px"
	 viewBox="0 0 100 100" style="enable-background:new 0 0 100 100;" xml:space="preserve">
<style type="text/css">
	.herbalst0{display:none;}
	.herbalst1{display:inline;fill:#F4C3E7;}
	.herbalst2{fill:#C451AB;}
	.herbalst3{display:inline;fill:#CCE4F2;}
	.herbalst4{fill:#4B96BC;}
	.herbalst5{display:none;fill:#BEEDE4;}
	.herbalst6{fill:#E27600;}
	.herbalst7{fill:#FFFFFF;}
	.herbalst8{display:inline;fill:#EFD0D0;}
	.herbalst9{fill:#BA5454;}
	.herbalst10{fill:none;}
	.herbalst11{display:inline;fill:#B79FCC;}
	.herbalst12{fill:#906AB7;}
	.herbalst13{fill:#C64040;}
	.herbalst14{fill:#F2F2F2;}
	.herbalst15{opacity:0.33;}
	.herbalst16{fill:#2B2B2B;}
	.herbalst17{fill:#1CAFD1;}
	.herbalst18{display:none;opacity:0.5;}
	.herbalst19{display:inline;fill:#F2B372;}
	.herbalst20{fill:#2183CC;}
	.herbalst21{display:none;opacity:0.4;fill:#EE4B8F;}
	.herbalst22{fill:#CC4266;}
	.herbalst23{display:inline;}
	.herbalst24{fill:#F3EBC9;}
	.herbalst25{fill:#E2C223;}
	.herbalst26{display:inline;fill:#BEEAC3;}
	.herbalst27{fill:#39B23C;}
	.herbalst28{display:none;fill:#CFE9FF;}
	.herbalst29{fill:#4479AD;}
	.herbalst30{display:none;fill:#E2CFE5;}
	.herbalst31{fill:#B06BC1;}
	.herbalst32{display:none;fill:#DCF9E2;}
	.herbalst33{fill:#42A042;}
	.herbalst34{display:inline;fill:#BEDBEA;}
	.herbalst35{fill:#58A0BC;}
	.herbalst36{fill:#BEDBEA;}
	.herbalst37{fill:#F8FDFF;}
	.herbalst38{fill:#E4B4DA;}
	.herbalst39{fill:#9D3889;}
	.herbalst40{fill:#B5E3BD;}
	.herbalst41{fill:#C13A4E;}
</style>
<g>
	<path class="herbalst32" d="M83.06,109.41H15.94c-9.35,0-16.93-7.58-16.93-16.93V64.13c0-9.35,7.58-16.93,16.93-16.93h67.12
		c9.35,0,16.93,7.58,16.93,16.93v28.35C99.98,101.83,92.41,109.41,83.06,109.41z"/>
	<g>
		<g>
			<path class="herbalst33" d="M48.48,50.87c-2.05-4.61-5.59-8.49-9.63-11.47c-2.06-1.52-4.28-2.86-6.61-3.93
				c-4.16-1.92-8.71-2.47-12.51-5.24c-0.38-0.28-3.87-2.75-3.68-3.36C4.82,61.56,28.02,74.82,37.6,78.7
				c-0.08-0.95-0.18-2.03-0.31-3.2c-0.15-1.17-0.29-2.44-0.52-3.77c-0.19-1.34-0.46-2.74-0.76-4.19c-0.26-1.46-0.68-2.92-1.03-4.44
				c-0.42-1.49-0.85-3.01-1.34-4.52c-0.26-0.74-0.53-1.49-0.79-2.23c-0.25-0.75-0.53-1.48-0.85-2.19c-0.62-1.43-1.17-2.87-1.89-4.17
				c-0.68-1.32-1.3-2.63-2.06-3.76c-0.36-0.58-0.71-1.15-1.05-1.7c-0.17-0.27-0.34-0.54-0.5-0.81c-0.19-0.25-0.37-0.49-0.55-0.73
				c-0.72-0.96-1.38-1.84-1.97-2.62c-0.63-0.74-1.23-1.35-1.7-1.87c-0.96-1.03-1.5-1.63-1.5-1.63s0.61,0.53,1.66,1.46
				c0.52,0.47,1.19,1.02,1.9,1.7c0.67,0.72,1.43,1.54,2.26,2.43c0.21,0.22,0.42,0.45,0.64,0.68c0.19,0.25,0.39,0.5,0.6,0.76
				c0.4,0.52,0.82,1.06,1.25,1.61c0.9,1.08,1.67,2.34,2.51,3.62c0.88,1.26,1.6,2.67,2.39,4.07c0.41,0.7,0.77,1.42,1.11,2.16
				c0.35,0.74,0.71,1.48,1.06,2.21c0.67,1.49,1.28,3.02,1.88,4.52c0.5,1.46,1.07,2.88,1.49,4.29c1.15-5.69,4.05-10.92,8.45-15.1
				C48.14,51.15,48.31,51.02,48.48,50.87z"/>
		</g>
		<g>
			<path class="herbalst33" d="M63.94,35.56c-2,4.15-5.51,7.65-9.39,10.34c0.31-0.53,0.63-1.09,0.93-1.7c0.44-0.81,0.83-1.7,1.24-2.62
				c0.41-0.91,0.73-1.91,1.09-2.89c0.26-1.02,0.63-2.02,0.8-3.08c0.2-1.05,0.42-2.09,0.46-3.14c0.04-0.52,0.09-1.04,0.13-1.55
				c-0.01-0.51-0.02-1.02-0.04-1.52c-0.02-0.5-0.01-0.98-0.05-1.46c-0.07-0.47-0.14-0.93-0.2-1.38c-0.07-0.45-0.13-0.88-0.19-1.3
				c-0.09-0.41-0.22-0.81-0.32-1.19c-0.22-0.75-0.38-1.46-0.6-2.06c-0.25-0.59-0.47-1.1-0.65-1.52c-0.33-0.78-0.53-1.25-0.56-1.31
				c0.02,0.06,0.18,0.54,0.44,1.36c0.14,0.43,0.31,0.95,0.5,1.55c0.16,0.61,0.25,1.32,0.4,2.07c0.06,0.38,0.16,0.77,0.21,1.18
				c0.02,0.41,0.05,0.84,0.07,1.28c0.02,0.44,0.05,0.89,0.07,1.35c0,0.46-0.05,0.93-0.08,1.41c-0.03,0.48-0.06,0.96-0.09,1.45
				c-0.08,0.48-0.17,0.97-0.26,1.47c-0.13,0.99-0.43,1.96-0.7,2.94c-0.25,0.98-0.69,1.91-1.01,2.84c-0.43,0.9-0.8,1.8-1.27,2.63
				c-0.46,0.83-0.89,1.63-1.38,2.35c-0.45,0.74-0.94,1.4-1.37,2.01c-0.66,0.89-1.26,1.63-1.77,2.22c-0.1,0.11-0.19,0.22-0.29,0.32
				c-12.69-11.48-6.52-17.32,0.09-24.54c4.79-5.23,3.08-9.2,1.71-11.05c-0.56-0.75-1.06-1.15-1.06-1.15
				c0.22,0.09,0.44,0.19,0.66,0.28c0.15,0.07,0.31,0.14,0.46,0.21C60.86,15.59,68.78,25.49,63.94,35.56z"/>
		</g>
		<g>
			<path class="herbalst33" d="M82.61,31.94c-4.21,3.95-9.31,7.49-15.54,10.8c-1.63,0.87-3.32,1.68-4.94,2.46
				c-4.61,2.22-8.97,4.31-12.59,7.75c-0.07,0.07-0.13,0.13-0.2,0.2c-5.28,5.12-8.16,11.89-8.1,19.09c0,0.06,0,0.13,0.01,0.21
				c0.04,1.22,0.34,4.66,0.74,6.93c0.15-0.4,0.32-0.82,0.49-1.25c0.03-0.07,0.05-0.14,0.08-0.21c0.48-1.09,1-2.27,1.64-3.47
				c0.32-0.6,0.66-1.21,1-1.83c0.35-0.62,0.76-1.22,1.15-1.85c0.75-1.27,1.7-2.46,2.61-3.71c0.02-0.02,0.04-0.05,0.06-0.07
				c0.92-1.19,1.95-2.33,2.94-3.49c1.11-1.1,2.17-2.23,3.29-3.26c1.16-0.99,2.27-2,3.4-2.9c1.16-0.86,2.29-1.69,3.36-2.47
				c1.09-0.75,2.17-1.38,3.14-2c0.97-0.62,1.86-1.18,2.71-1.59c0.83-0.43,1.55-0.81,2.14-1.12c1.18-0.62,1.86-0.98,1.86-0.98
				s-0.65,0.41-1.77,1.13c-0.56,0.36-1.25,0.79-2.03,1.29c-0.8,0.47-1.64,1.1-2.55,1.79c-0.91,0.69-1.92,1.4-2.93,2.22
				c-0.98,0.86-2.01,1.76-3.08,2.7c-1.03,0.97-2.03,2.05-3.07,3.1c-1.01,1.09-1.94,2.27-2.91,3.41c-0.87,1.22-1.79,2.41-2.58,3.64
				c-0.76,1.26-1.57,2.46-2.17,3.71c-0.32,0.62-0.66,1.21-0.94,1.82c-0.27,0.61-0.53,1.21-0.79,1.79c-0.51,1.16-0.89,2.3-1.25,3.33
				c-0.22,0.7-0.41,1.35-0.57,1.97c17.94-0.39,30.13-5.27,36.25-14.53C89.65,54.13,84.49,37.11,82.61,31.94z"/>
		</g>
		<g>
			<g>
				<path class="herbalst33" d="M48.88,50.68c-2.39-5.28-6.52-9.55-11.29-12.78c-2.56-1.74-5.32-3.14-8.24-4.16
					c-2.89-1-5.89-1.77-8.52-3.38c-0.82-0.5-1.6-1.09-2.36-1.68c-0.42-0.33-0.84-0.66-1.23-1.01c-0.18-0.16-0.35-0.36-0.54-0.51
					c-0.24-0.2-0.12-0.39-0.17-0.01c0.05-0.4-0.7-1.34-0.91-0.67c-3.31,10.32-4.55,21.7-0.31,31.94
					c2.87,6.94,8.07,12.64,14.32,16.72c2.53,1.65,5.22,3.03,8.01,4.17c0.29,0.12,0.47-0.24,0.45-0.47
					c-0.53-6.49-1.72-12.92-3.63-19.14c-0.95-3.08-2.1-6.15-3.52-9.05c-1.29-2.65-2.72-5.37-4.49-7.73
					c-0.99-1.32-1.93-2.66-3.05-3.87c-0.8-0.87-1.6-1.73-2.4-2.6c-0.14,0.3-0.28,0.61-0.41,0.91c1.72,1.51,3.42,3,4.98,4.68
					c2.06,2.22,3.85,4.62,5.51,7.14c3.47,5.28,6.14,11.24,8,17.27c0.12,0.39,0.79,0.92,0.93,0.24c1.22-5.85,4.32-11.37,8.84-15.31
					c0.42-0.37-0.25-1.44-0.74-1.01c-4.65,4.06-7.8,9.76-9.06,15.78c0.31,0.08,0.62,0.16,0.93,0.24
					c-1.88-6.11-4.55-12.22-8.08-17.57c-1.7-2.57-3.48-5.06-5.58-7.32c-1.69-1.81-3.48-3.43-5.34-5.06
					c-0.65-0.57-0.81,0.48-0.41,0.91c2.12,2.29,4.28,4.59,5.94,7.26c2.07,3.33,3.84,6.74,5.34,10.37
					c3.07,7.43,4.61,15.63,5.26,23.61c0.15-0.16,0.3-0.31,0.45-0.47c-5.27-2.14-10.2-5.26-14.22-9.29
					c-5.85-5.86-9.21-13.59-9.73-21.84c-0.42-6.68,0.84-13.37,2.87-19.71c-0.3-0.22-0.61-0.45-0.91-0.67
					c-0.17,1.38,2.05,2.68,2.96,3.36c1.93,1.45,3.96,2.57,6.24,3.4c3.04,1.12,6.14,1.94,9.03,3.45c2.9,1.52,5.62,3.43,8.01,5.67
					c2.61,2.45,4.8,5.31,6.27,8.58C48.4,51.78,49.2,51.39,48.88,50.68z"/>
			</g>
		</g>
		<g>
			<g>
				<path class="herbalst33" d="M50.4,48.15c3.64-4.09,6.48-9.1,7.65-14.47c0.57-2.61,0.72-5.33,0.45-7.99c-0.23-2.23-0.93-4.34-1.61-6.45
					c-0.17,0.02-0.34,0.04-0.52,0.06c0.76,1.79,1.49,3.56,1.94,5.47c0.56,2.37,0.6,4.86,0.41,7.27c-0.38,4.71-2.11,9.29-4.49,13.35
					c-0.13,0.23,0.31,1.3,0.6,1.1c5.12-3.59,10.22-8.85,10.87-15.38c0.57-5.75-2.43-11.21-6.45-15.11c-2.47-2.4-5.39-4.32-8.56-5.66
					c-0.49-0.21-0.01,0.9,0.16,1.03c1.2,0.97,1.99,2.51,2.11,4.04c0.32,3.82-2.69,6.66-5.04,9.25c-3.43,3.79-6.75,8.15-5.09,13.53
					c1.23,3.97,4.28,7.19,7.28,9.92c0.48,0.44,0.17-0.75-0.07-0.97c-2.79-2.55-5.97-5.67-6.8-9.51c-0.56-2.6,0.27-5.11,1.65-7.31
					c1.5-2.37,3.48-4.4,5.36-6.46c2.28-2.49,4.07-5.62,3.19-9.09c-0.41-1.62-1.35-3.32-2.67-4.38c0.05,0.34,0.1,0.69,0.16,1.03
					c5.07,2.14,9.85,5.88,12.42,10.83c1.27,2.45,1.91,5.2,1.64,7.96c-0.29,2.94-1.57,5.64-3.28,8.01c-2.02,2.81-4.62,5.13-7.44,7.11
					c0.2,0.37,0.4,0.73,0.6,1.1c2.65-4.53,4.24-9.44,4.64-14.68c0.17-2.24-0.03-4.73-0.62-6.9c-0.54-2.01-1.26-3.86-2.07-5.78
					c-0.21-0.5-0.74-0.65-0.52,0.06c0.69,2.13,1.4,4.27,1.52,6.52c0.15,2.66,0.02,5.28-0.66,7.87c-1.33,5.04-3.96,9.68-7.42,13.57
					C49.53,47.35,50.15,48.44,50.4,48.15z"/>
			</g>
		</g>
		<g>
			<g>
				<path class="herbalst33" d="M82.25,31.43c-3.42,3.19-7.21,5.94-11.22,8.35c-4.33,2.6-8.95,4.62-13.43,6.94
					c-4.05,2.1-7.8,4.65-10.73,8.2c-2.68,3.25-4.57,7.09-5.48,11.2c-0.96,4.34-0.6,8.78,0.14,13.12c0.05,0.27,0.63,1.18,0.87,0.55
					c2.7-6.98,7.04-13.04,12.38-18.25c5.08-4.95,11.12-8.51,17.36-11.78c-0.18-0.38-0.36-0.77-0.55-1.15
					c-5.82,3.7-11.43,7.64-16.03,12.85c-4.93,5.57-8.81,12.02-10.79,19.22c-0.1,0.36,0.13,1.02,0.59,1.01
					c10.65-0.25,22.39-1.88,30.99-8.71c3.85-3.06,6.74-7.16,8.34-11.81c1.76-5.16,2.01-10.74,1.41-16.12
					c-0.5-4.46-1.54-8.89-3.07-13.11c-0.22-0.62-1.14-0.77-0.85,0.03c3.02,8.35,4.56,17.97,2.2,26.66
					c-1.31,4.83-3.94,9.16-7.69,12.46c-3.47,3.05-7.72,5.13-12.1,6.53c-6.3,2.02-12.97,2.72-19.56,2.88
					c0.2,0.34,0.39,0.67,0.59,1.01c1.96-7.14,5.79-13.5,10.67-19.02c4.55-5.15,10.1-9.06,15.85-12.71c0.46-0.29-0.06-1.41-0.55-1.15
					c-6.3,3.3-12.4,6.91-17.53,11.91c-5.4,5.26-9.77,11.4-12.5,18.45c0.29,0.18,0.58,0.37,0.87,0.55
					c-0.64-3.77-1.03-7.65-0.41-11.44c0.7-4.3,2.56-8.36,5.26-11.77c6.01-7.56,15.62-10.27,23.66-15.01
					c4.3-2.53,8.37-5.45,12.02-8.85C83.35,32.1,82.7,31.02,82.25,31.43z"/>
			</g>
		</g>
	</g>
</g>
</svg>
