<svg xmlns="http://www.w3.org/2000/svg" fill="none" viewBox="0 0 22 22" height="22" width="22">
<path fill="white" d="M17.7334 15.8432L7.33899 15.8431C7.11053 15.8413 6.88627 15.7816 6.68716 15.6695C6.48805 15.5575 6.32059 15.3968 6.20043 15.2025C6.08026 15.0082 6.01132 14.7866 6.00004 14.5584C5.98876 14.3302 6.03551 14.1029 6.13592 13.8977L6.68587 12.7943C5.96551 10.2873 4.90699 6.55974 4.19037 4.06352C4.17018 3.99618 4.12889 3.93712 4.07258 3.89503C4.01627 3.85295 3.94792 3.83008 3.87763 3.8298H1.7121C1.6221 3.82804 1.53637 3.79105 1.47334 3.72678C1.41031 3.66251 1.375 3.57608 1.375 3.48606C1.375 3.39603 1.41031 3.3096 1.47334 3.24533C1.53637 3.18106 1.6221 3.14407 1.7121 3.14232H3.87762C4.09721 3.14237 4.31084 3.21382 4.48629 3.34587C4.66174 3.47793 4.78951 3.66344 4.85033 3.87444C5.57333 6.40719 6.58402 9.94065 7.31147 12.4849C7.34747 12.625 7.44784 12.8458 7.35956 12.9834C7.29745 13.0956 6.82417 14.0604 6.74779 14.2036C6.69876 14.3042 6.67605 14.4156 6.68177 14.5274C6.6875 14.6392 6.72147 14.7477 6.78052 14.8429C6.83957 14.938 6.92177 15.0165 7.01944 15.0713C7.11711 15.126 7.22705 15.155 7.33899 15.1557H17.7334C17.8236 15.1571 17.9097 15.194 17.973 15.2583C18.0363 15.3226 18.0717 15.4092 18.0717 15.4994C18.0717 15.5897 18.0363 15.6763 17.973 15.7406C17.9097 15.8049 17.8236 15.8417 17.7334 15.8432ZM15.5439 9.16793C11.9424 7.61786 12.9664 2.21055 16.9634 2.15237C17.8471 2.15281 18.7007 2.47341 19.3662 3.05482C20.0316 3.63623 20.4639 4.43907 20.5829 5.31469C21.0136 8.06164 18.0516 10.2962 15.5439 9.16793ZM18.5653 5.4625H17.3072V4.20445C17.3072 4.11329 17.2709 4.02586 17.2065 3.96139C17.142 3.89693 17.0546 3.86072 16.9634 3.86072C16.8723 3.86072 16.7848 3.89693 16.7204 3.96139C16.6559 4.02586 16.6197 4.11329 16.6197 4.20445V5.4625H15.3651C15.3199 5.4625 15.2753 5.47139 15.2335 5.48867C15.1918 5.50594 15.154 5.53126 15.122 5.56318C15.0901 5.5951 15.0648 5.63299 15.0475 5.67469C15.0302 5.71639 15.0214 5.76109 15.0214 5.80623C15.0214 5.85137 15.0302 5.89607 15.0475 5.93777C15.0648 5.97947 15.0901 6.01737 15.122 6.04928C15.154 6.0812 15.1918 6.10652 15.2335 6.1238C15.2753 6.14107 15.3199 6.14996 15.3651 6.14996H16.6197V7.40457C16.6197 7.49573 16.6559 7.58316 16.7204 7.64763C16.7848 7.71209 16.8723 7.7483 16.9634 7.7483C17.0546 7.7483 17.142 7.71209 17.2065 7.64763C17.2709 7.58316 17.3072 7.49573 17.3072 7.40457V6.14996H18.5653C18.6558 6.14897 18.7422 6.11232 18.8059 6.04796C18.8695 5.98361 18.9052 5.89675 18.9052 5.80623C18.9052 5.71571 18.8695 5.62885 18.8059 5.5645C18.7422 5.50014 18.6558 5.46349 18.5653 5.4625ZM7.05366 16.4928C4.83221 16.5627 4.83271 19.7781 7.05374 19.8477C9.27032 19.7768 9.26982 16.5633 7.05366 16.4928ZM16.3963 16.4928C14.1797 16.5637 14.1802 19.7771 16.3963 19.8477C18.6178 19.7778 18.6173 16.5624 16.3963 16.4928ZM14.2307 9.16791L7.07774 9.16793L8.04361 12.5468C8.10503 12.7518 8.099 12.9711 8.02641 13.1724H17.7334C17.8053 13.1719 17.8753 13.1491 17.9337 13.1073C17.9922 13.0655 18.0363 13.0065 18.0599 12.9387L19.2011 9.51854C18.4374 9.97912 17.5501 10.1926 16.6604 10.1299C15.7708 10.0671 14.9222 9.73114 14.2307 9.16791ZM13.5536 8.48045C13.1155 7.9226 12.821 7.26582 12.6957 6.56767C12.5705 5.86952 12.6184 5.15131 12.8353 4.47598H5.73715L6.88184 8.48045H13.5536Z"></path>
</svg>
