<svg viewBox="0 0 105.85 148.91" xmlns="http://www.w3.org/2000/svg" data-name="Layer 2" id="Layer_2">
  <defs>
    <style>
      .cls-1 {
        fill: #fff;
        stroke-width: 0px;
      }
    </style>
  </defs>
  <g data-name="Layer 1" id="Layer_1-2">
    <path d="m105.82,0H0v143.88c0,1.8.94,3.45,2.49,4.34,1.55.91,3.47.91,5.03.02l45.39-26.18,45.4,26.18c.78.43,1.64.66,2.51.66s1.74-.23,2.51-.68c1.55-.89,2.51-2.54,2.51-4.34V.02s-.01-.02-.02-.02Zm-25.04,53.16l-10.94,10.67c-.64.62-.94,1.51-.78,2.4l2.58,15.06c.37,2.22-1.94,3.91-3.93,2.86l-13.55-7.1c-.78-.41-1.71-.41-2.51,0l-13.52,7.1c-1.99,1.05-4.32-.64-3.93-2.86l2.58-15.06c.14-.89-.14-1.78-.78-2.4l-10.94-10.67c-1.62-1.58-.73-4.32,1.49-4.64l15.15-2.19c.87-.11,1.64-.69,2.03-1.48l6.76-13.71c.98-2.01,3.86-2.01,4.87,0l6.76,13.71c.39.8,1.14,1.37,2.03,1.48l15.12,2.19c2.22.32,3.11,3.06,1.51,4.64Z" class="cls-1" id="icon"></path>
  </g>
</svg>